<svg xmlns="http://www.w3.org/2000/svg" xmlns:xlink="http://www.w3.org/1999/xlink" width="500" zoomAndPan="magnify" viewBox="0 0 375 374.999991" height="500" preserveAspectRatio="xMidYMid meet" version="1.2"><defs><clipPath id="d3fab5435a"><path d="M 37.5 65.046875 L 337.5 65.046875 L 337.5 310.296875 L 37.5 310.296875 Z M 37.5 65.046875 "/></clipPath></defs><g id="2a644d5987"><g clip-rule="nonzero" clip-path="url(#d3fab5435a)"><path style=" stroke:none;fill-rule:nonzero;fill:#000000;fill-opacity:1;" d="M 301.078125 261.992188 L 238.738281 261.992188 L 238.738281 286.867188 L 301.078125 286.867188 L 301.078125 297.636719 L 306.886719 297.636719 L 306.886719 70.863281 L 319.632812 70.863281 L 319.632812 65.046875 L 155.722656 65.046875 L 155.722656 70.863281 L 301.085938 70.863281 L 301.085938 261.992188 Z M 244.546875 281.050781 L 244.546875 267.8125 L 301.078125 267.8125 L 301.078125 281.050781 Z M 174.28125 304.445312 L 174.28125 246.085938 L 270.046875 246.085938 L 270.046875 180.324219 L 174.28125 180.324219 L 174.28125 160.859375 L 270.046875 160.859375 L 270.046875 95.097656 L 174.28125 95.097656 L 174.28125 78.898438 L 168.472656 78.898438 L 168.472656 155.042969 L 67.316406 155.042969 C 63.492188 155.042969 60.378906 158.160156 60.378906 161.992188 L 60.378906 168.488281 C 60.378906 172.320312 63.492188 175.4375 67.316406 175.4375 L 74.535156 175.4375 L 74.535156 255.046875 L 80.34375 255.046875 L 80.34375 175.4375 L 168.472656 175.4375 L 168.472656 262.941406 L 153.226562 262.941406 L 153.226562 192.242188 L 113.285156 192.242188 L 113.285156 262.941406 L 60.992188 262.941406 L 60.992188 268.757812 L 168.460938 268.757812 L 168.460938 276.777344 L 53.464844 276.777344 L 53.464844 282.59375 L 168.472656 282.59375 L 168.472656 290.605469 L 45.9375 290.605469 L 45.9375 296.425781 L 168.472656 296.425781 L 168.472656 304.4375 L 37.664062 304.4375 L 37.664062 310.253906 L 337.375 310.253906 L 337.375 304.4375 L 174.28125 304.4375 Z M 264.238281 155.042969 L 244.546875 155.042969 L 244.546875 100.914062 L 264.238281 100.914062 Z M 174.28125 100.914062 L 238.738281 100.914062 L 238.738281 155.042969 L 174.28125 155.042969 Z M 67.316406 169.628906 C 66.695312 169.628906 66.1875 169.121094 66.1875 168.496094 L 66.1875 162 C 66.1875 161.375 66.695312 160.867188 67.316406 160.867188 L 168.472656 160.867188 L 168.472656 169.636719 L 67.316406 169.636719 Z M 264.238281 240.269531 L 244.546875 240.269531 L 244.546875 186.140625 L 264.238281 186.140625 Z M 238.738281 186.140625 L 238.738281 240.269531 L 174.28125 240.269531 L 174.28125 186.140625 Z M 119.09375 262.941406 L 119.09375 198.058594 L 147.417969 198.058594 L 147.417969 262.941406 Z M 119.09375 262.941406 "/></g></g></svg>