<svg xmlns="http://www.w3.org/2000/svg" xmlns:xlink="http://www.w3.org/1999/xlink" width="500" zoomAndPan="magnify" viewBox="0 0 375 374.999991" height="500" preserveAspectRatio="xMidYMid meet" version="1.2"><defs><clipPath id="158942158a"><path d="M 107.503906 31 L 277.753906 31 L 277.753906 319 L 107.503906 319 Z M 107.503906 31 "/></clipPath><clipPath id="931ed138ed"><path d="M 161 125 L 272 125 L 272 219 L 161 219 Z M 161 125 "/></clipPath><clipPath id="c4f79579ad"><path d="M 30 173.042969 L 269.859375 112.023438 L 319.785156 308.273438 L 79.925781 369.292969 Z M 30 173.042969 "/></clipPath><clipPath id="41d06b3fcc"><path d="M 30 173.042969 L 269.859375 112.023438 L 319.785156 308.273438 L 79.925781 369.292969 Z M 30 173.042969 "/></clipPath><clipPath id="e6d7a34d97"><path d="M 213 174 L 241 174 L 241 224 L 213 224 Z M 213 174 "/></clipPath><clipPath id="b617e1b3a6"><path d="M 30 173.042969 L 269.859375 112.023438 L 319.785156 308.273438 L 79.925781 369.292969 Z M 30 173.042969 "/></clipPath><clipPath id="cf96947a64"><path d="M 30 173.042969 L 269.859375 112.023438 L 319.785156 308.273438 L 79.925781 369.292969 Z M 30 173.042969 "/></clipPath><clipPath id="8c6eaa869b"><path d="M 135 219 L 207 219 L 207 338 L 135 338 Z M 135 219 "/></clipPath><clipPath id="b95c82dcb0"><path d="M 30 173.042969 L 269.859375 112.023438 L 319.785156 308.273438 L 79.925781 369.292969 Z M 30 173.042969 "/></clipPath><clipPath id="75b24319e4"><path d="M 30 173.042969 L 269.859375 112.023438 L 319.785156 308.273438 L 79.925781 369.292969 Z M 30 173.042969 "/></clipPath></defs><g id="d511d113d0"><g clip-rule="nonzero" clip-path="url(#158942158a)"><path style=" stroke:none;fill-rule:nonzero;fill:#064b9c;fill-opacity:1;" d="M 241.59375 88.214844 L 216.734375 88.214844 L 216.734375 44.523438 C 219.371094 43.390625 220.878906 41.132812 220.878906 38.496094 C 220.878906 34.726562 217.867188 31.714844 214.097656 31.714844 L 171.160156 31.714844 C 167.394531 31.714844 164.378906 34.726562 164.378906 38.496094 C 164.378906 41.132812 166.261719 43.769531 168.523438 44.523438 L 168.523438 88.214844 L 143.664062 88.214844 C 123.699219 88.214844 107.503906 104.410156 107.503906 124.375 L 107.503906 282.195312 C 107.503906 302.15625 123.699219 318.351562 143.664062 318.351562 L 241.59375 318.351562 C 261.558594 318.351562 277.753906 302.15625 277.753906 282.195312 L 277.753906 124.375 C 277.753906 104.410156 261.558594 88.214844 241.59375 88.214844 Z M 210.332031 88.214844 L 174.550781 88.214844 L 174.550781 45.273438 L 210.332031 45.273438 Z M 210.332031 88.214844 "/></g><path style=" stroke:none;fill-rule:nonzero;fill:#064b9c;fill-opacity:1;" d="M 126.714844 318.351562 C 119.558594 318.351562 113.90625 324.003906 113.90625 331.160156 C 113.90625 338.316406 119.558594 343.964844 126.714844 343.964844 C 133.871094 343.964844 139.519531 338.316406 139.519531 331.160156 C 139.519531 324.003906 133.871094 318.351562 126.714844 318.351562 Z M 126.714844 336.054688 C 123.699219 336.054688 121.441406 333.796875 121.441406 330.78125 C 121.441406 327.769531 123.699219 325.507812 126.714844 325.507812 C 129.726562 325.507812 131.988281 327.769531 131.988281 330.78125 C 131.988281 333.796875 129.726562 336.054688 126.714844 336.054688 Z M 126.714844 336.054688 "/><path style=" stroke:none;fill-rule:nonzero;fill:#064b9c;fill-opacity:1;" d="M 258.546875 318.351562 C 251.386719 318.351562 245.738281 324.003906 245.738281 331.160156 C 245.738281 338.316406 251.386719 343.964844 258.546875 343.964844 C 265.703125 343.964844 271.351562 338.316406 271.351562 331.160156 C 271.351562 324.003906 265.324219 318.351562 258.546875 318.351562 Z M 258.546875 336.054688 C 255.53125 336.054688 253.273438 333.796875 253.273438 330.78125 C 253.273438 327.769531 255.53125 325.507812 258.546875 325.507812 C 261.558594 325.507812 263.816406 327.769531 263.816406 330.78125 C 263.441406 333.796875 261.183594 336.054688 258.546875 336.054688 Z M 258.546875 336.054688 "/><g clip-rule="nonzero" clip-path="url(#931ed138ed)"><g clip-rule="nonzero" clip-path="url(#c4f79579ad)"><g clip-rule="nonzero" clip-path="url(#41d06b3fcc)"><path style=" stroke:none;fill-rule:nonzero;fill:#ffffff;fill-opacity:1;" d="M 269.421875 128.523438 C 266.199219 125.09375 260.902344 124.9375 257.449219 128.164062 L 254.25 131.183594 C 250.480469 130.125 239.792969 129.722656 223.921875 146.25 L 174.207031 138.539062 C 170.203125 137.9375 166.230469 140.21875 164.933594 144.070312 C 163.523438 147.949219 165.164062 152.179688 168.582031 154.269531 L 200.433594 172.789062 L 182.824219 197.695312 L 162.941406 195.945312 L 161.257812 202.710938 L 178.8125 217.359375 C 182.03125 219.214844 186.183594 218.839844 188.941406 216.210938 L 196.992188 208.625 L 212.097656 194.359375 L 226.378906 180.910156 L 238.761719 169.238281 L 244.914062 163.421875 L 269.128906 140.570312 C 272.546875 137.304688 272.65625 131.925781 269.421875 128.523438 Z M 269.421875 128.523438 "/></g></g></g><g clip-rule="nonzero" clip-path="url(#e6d7a34d97)"><g clip-rule="nonzero" clip-path="url(#b617e1b3a6)"><g clip-rule="nonzero" clip-path="url(#cf96947a64)"><path style=" stroke:none;fill-rule:nonzero;fill:#ffffff;fill-opacity:1;" d="M 213.375 199.386719 L 217.714844 217.179688 C 218.734375 221.007812 222.332031 223.800781 226.449219 223.550781 C 230.515625 223.386719 233.847656 220.238281 234.371094 216.207031 L 240.03125 174.222656 L 227.652344 185.917969 Z M 213.375 199.386719 "/></g></g></g><g clip-rule="nonzero" clip-path="url(#8c6eaa869b)"><g clip-rule="nonzero" clip-path="url(#b95c82dcb0)"><g clip-rule="nonzero" clip-path="url(#75b24319e4)"><path style=" stroke:none;fill-rule:nonzero;fill:#ffffff;fill-opacity:1;" d="M 173.496094 226.457031 L 165.496094 219.382812 C 165.496094 219.382812 76.371094 338.785156 206.789062 337.863281 C 206.796875 337.886719 94.632812 332.496094 173.496094 226.457031 Z M 173.496094 226.457031 "/></g></g></g><g style="fill:#ffffff;fill-opacity:1;"><g transform="translate(190.662426, 305.924255)"><path style="stroke:none" d="M 30.609375 -37.4375 L 30.609375 -27.078125 L 21.359375 -27.078125 L 21.359375 0 L 10.125 0 L 10.125 -27.078125 L 0.875 -27.078125 L 0.875 -37.4375 Z M 30.609375 -37.4375 "/></g></g><g style="fill:#ffffff;fill-opacity:1;"><g transform="translate(222.193241, 305.924255)"><path style="stroke:none" d="M 21.078125 -22.625 L 37.921875 -22.625 L 37.921875 -5.34375 C 35.796875 -3.320312 33.394531 -1.78125 30.71875 -0.71875 C 28.039062 0.34375 24.992188 0.875 21.578125 0.875 C 18.492188 0.875 15.722656 0.375 13.265625 -0.625 C 10.804688 -1.632812 8.722656 -3.039062 7.015625 -4.84375 C 5.304688 -6.644531 3.992188 -8.726562 3.078125 -11.09375 C 2.160156 -13.457031 1.703125 -16 1.703125 -18.71875 C 1.703125 -22.53125 2.546875 -25.90625 4.234375 -28.84375 C 5.921875 -31.78125 8.304688 -34.09375 11.390625 -35.78125 C 14.472656 -37.46875 18.085938 -38.3125 22.234375 -38.3125 C 25.503906 -38.3125 28.367188 -37.796875 30.828125 -36.765625 C 33.285156 -35.742188 35.414062 -34.460938 37.21875 -32.921875 L 31.8125 -25.328125 C 30.34375 -26.460938 28.929688 -27.257812 27.578125 -27.71875 C 26.222656 -28.175781 24.679688 -28.40625 22.953125 -28.40625 C 20.128906 -28.40625 17.78125 -27.566406 15.90625 -25.890625 C 14.03125 -24.222656 13.09375 -21.8125 13.09375 -18.65625 C 13.09375 -16.457031 13.515625 -14.640625 14.359375 -13.203125 C 15.210938 -11.773438 16.34375 -10.703125 17.75 -9.984375 C 19.164062 -9.273438 20.734375 -8.921875 22.453125 -8.921875 C 24.734375 -8.921875 26.695312 -9.359375 28.34375 -10.234375 L 28.34375 -14.03125 L 21.078125 -14.03125 Z M 21.078125 -22.625 "/></g></g></g></svg>