<svg xmlns="http://www.w3.org/2000/svg" xmlns:xlink="http://www.w3.org/1999/xlink" width="500" zoomAndPan="magnify" viewBox="0 0 375 374.999991" height="500" preserveAspectRatio="xMidYMid meet" version="1.2"><defs><clipPath id="f918bb5cb0"><path d="M 140.601562 71.386719 L 238 71.386719 L 238 236 L 140.601562 236 Z M 140.601562 71.386719 "/></clipPath><clipPath id="2fa5951598"><path d="M 144 235 L 159 235 L 159 250.636719 L 144 250.636719 Z M 144 235 "/></clipPath><clipPath id="9fdcad5d5c"><path d="M 219 235 L 235 235 L 235 250.636719 L 219 250.636719 Z M 219 235 "/></clipPath><clipPath id="2fef8ab72d"><path d="M 171 125 L 235 125 L 235 179 L 171 179 Z M 171 125 "/></clipPath><clipPath id="a39e9821ea"><path d="M 96.28125 152.65625 L 233.65625 117.710938 L 262.316406 230.371094 L 124.941406 265.320312 Z M 96.28125 152.65625 "/></clipPath><clipPath id="1415849b9d"><path d="M 96.28125 152.65625 L 233.65625 117.710938 L 262.316406 230.371094 L 124.941406 265.320312 Z M 96.28125 152.65625 "/></clipPath><clipPath id="d0cfa912e2"><path d="M 201 153 L 217 153 L 217 182 L 201 182 Z M 201 153 "/></clipPath><clipPath id="fe3e4e9f83"><path d="M 96.28125 152.65625 L 233.65625 117.710938 L 262.316406 230.371094 L 124.941406 265.320312 Z M 96.28125 152.65625 "/></clipPath><clipPath id="5c01daf487"><path d="M 96.28125 152.65625 L 233.65625 117.710938 L 262.316406 230.371094 L 124.941406 265.320312 Z M 96.28125 152.65625 "/></clipPath><clipPath id="16d7547b40"><path d="M 156 179 L 198 179 L 198 248 L 156 248 Z M 156 179 "/></clipPath><clipPath id="7b4d4b7014"><path d="M 96.28125 152.65625 L 233.65625 117.710938 L 262.316406 230.371094 L 124.941406 265.320312 Z M 96.28125 152.65625 "/></clipPath><clipPath id="ba229f5aa4"><path d="M 96.28125 152.65625 L 233.65625 117.710938 L 262.316406 230.371094 L 124.941406 265.320312 Z M 96.28125 152.65625 "/></clipPath></defs><g id="92756292c1"><g clip-rule="nonzero" clip-path="url(#f918bb5cb0)"><path style=" stroke:none;fill-rule:nonzero;fill:#064b9c;fill-opacity:1;" d="M 217.191406 104.109375 L 202.992188 104.109375 L 202.992188 79.152344 C 204.5 78.507812 205.359375 77.214844 205.359375 75.710938 C 205.359375 73.558594 203.636719 71.835938 201.488281 71.835938 L 176.960938 71.835938 C 174.808594 71.835938 173.089844 73.558594 173.089844 75.710938 C 173.089844 77.214844 174.164062 78.722656 175.453125 79.152344 L 175.453125 104.109375 L 161.253906 104.109375 C 149.851562 104.109375 140.601562 113.359375 140.601562 124.761719 L 140.601562 214.90625 C 140.601562 226.308594 149.851562 235.558594 161.253906 235.558594 L 217.191406 235.558594 C 228.59375 235.558594 237.84375 226.308594 237.84375 214.90625 L 237.84375 124.761719 C 237.84375 113.359375 228.59375 104.109375 217.191406 104.109375 Z M 199.335938 104.109375 L 178.898438 104.109375 L 178.898438 79.582031 L 199.335938 79.582031 Z M 199.335938 104.109375 "/></g><g clip-rule="nonzero" clip-path="url(#2fa5951598)"><path style=" stroke:none;fill-rule:nonzero;fill:#064b9c;fill-opacity:1;" d="M 151.574219 235.558594 C 147.484375 235.558594 144.257812 238.785156 144.257812 242.875 C 144.257812 246.960938 147.484375 250.1875 151.574219 250.1875 C 155.660156 250.1875 158.886719 246.960938 158.886719 242.875 C 158.886719 238.785156 155.660156 235.558594 151.574219 235.558594 Z M 151.574219 245.671875 C 149.851562 245.671875 148.5625 244.378906 148.5625 242.660156 C 148.5625 240.9375 149.851562 239.648438 151.574219 239.648438 C 153.292969 239.648438 154.585938 240.9375 154.585938 242.660156 C 154.585938 244.378906 153.292969 245.671875 151.574219 245.671875 Z M 151.574219 245.671875 "/></g><g clip-rule="nonzero" clip-path="url(#9fdcad5d5c)"><path style=" stroke:none;fill-rule:nonzero;fill:#064b9c;fill-opacity:1;" d="M 226.875 235.558594 C 222.785156 235.558594 219.558594 238.785156 219.558594 242.875 C 219.558594 246.960938 222.785156 250.1875 226.875 250.1875 C 230.960938 250.1875 234.1875 246.960938 234.1875 242.875 C 234.1875 238.785156 230.746094 235.558594 226.875 235.558594 Z M 226.875 245.671875 C 225.152344 245.671875 223.859375 244.378906 223.859375 242.660156 C 223.859375 240.9375 225.152344 239.648438 226.875 239.648438 C 228.59375 239.648438 229.886719 240.9375 229.886719 242.660156 C 229.671875 244.378906 228.378906 245.671875 226.875 245.671875 Z M 226.875 245.671875 "/></g><g clip-rule="nonzero" clip-path="url(#2fef8ab72d)"><g clip-rule="nonzero" clip-path="url(#a39e9821ea)"><g clip-rule="nonzero" clip-path="url(#1415849b9d)"><path style=" stroke:none;fill-rule:nonzero;fill:#ffffff;fill-opacity:1;" d="M 233.382812 127.164062 C 231.539062 125.199219 228.503906 125.109375 226.527344 126.957031 L 224.695312 128.6875 C 222.535156 128.082031 216.414062 127.851562 207.328125 137.3125 L 178.859375 132.902344 C 176.566406 132.554688 174.292969 133.859375 173.550781 136.066406 C 172.742188 138.289062 173.683594 140.710938 175.640625 141.90625 L 193.878906 152.511719 L 183.792969 166.773438 L 172.40625 165.773438 L 171.445312 169.648438 L 181.496094 178.03125 C 183.339844 179.097656 185.71875 178.882812 187.296875 177.378906 L 191.90625 173.03125 L 200.554688 164.863281 L 208.734375 157.164062 L 215.824219 150.476562 L 219.347656 147.148438 L 233.214844 134.0625 C 235.171875 132.195312 235.234375 129.113281 233.382812 127.164062 Z M 233.382812 127.164062 "/></g></g></g><g clip-rule="nonzero" clip-path="url(#d0cfa912e2)"><g clip-rule="nonzero" clip-path="url(#fe3e4e9f83)"><g clip-rule="nonzero" clip-path="url(#5c01daf487)"><path style=" stroke:none;fill-rule:nonzero;fill:#ffffff;fill-opacity:1;" d="M 201.289062 167.742188 L 203.773438 177.929688 C 204.359375 180.121094 206.417969 181.722656 208.773438 181.578125 C 211.105469 181.484375 213.011719 179.683594 213.3125 177.375 L 216.550781 153.332031 L 209.464844 160.027344 Z M 201.289062 167.742188 "/></g></g></g><g clip-rule="nonzero" clip-path="url(#16d7547b40)"><g clip-rule="nonzero" clip-path="url(#7b4d4b7014)"><g clip-rule="nonzero" clip-path="url(#ba229f5aa4)"><path style=" stroke:none;fill-rule:nonzero;fill:#ffffff;fill-opacity:1;" d="M 178.453125 183.242188 L 173.871094 179.191406 C 173.871094 179.191406 122.835938 247.566406 197.519531 247.039062 C 197.519531 247.050781 133.292969 243.964844 178.453125 183.242188 Z M 178.453125 183.242188 "/></g></g></g><g style="fill:#ffffff;fill-opacity:1;"><g transform="translate(188.154925, 228.645281)"><path style="stroke:none" d="M 17.5 -21.40625 L 17.5 -15.484375 L 12.203125 -15.484375 L 12.203125 0 L 5.796875 0 L 5.796875 -15.484375 L 0.5 -15.484375 L 0.5 -21.40625 Z M 17.5 -21.40625 "/></g></g><g style="fill:#ffffff;fill-opacity:1;"><g transform="translate(206.18568, 228.645281)"><path style="stroke:none" d="M 12.046875 -12.9375 L 21.6875 -12.9375 L 21.6875 -3.046875 C 20.46875 -1.898438 19.09375 -1.019531 17.5625 -0.40625 C 16.03125 0.195312 14.285156 0.5 12.328125 0.5 C 10.566406 0.5 8.984375 0.210938 7.578125 -0.359375 C 6.171875 -0.941406 4.976562 -1.742188 4 -2.765625 C 3.03125 -3.796875 2.28125 -4.988281 1.75 -6.34375 C 1.226562 -7.695312 0.96875 -9.148438 0.96875 -10.703125 C 0.96875 -12.878906 1.453125 -14.804688 2.421875 -16.484375 C 3.390625 -18.160156 4.753906 -19.484375 6.515625 -20.453125 C 8.273438 -21.421875 10.34375 -21.90625 12.71875 -21.90625 C 14.582031 -21.90625 16.21875 -21.609375 17.625 -21.015625 C 19.03125 -20.429688 20.242188 -19.695312 21.265625 -18.8125 L 18.1875 -14.46875 C 17.351562 -15.125 16.546875 -15.582031 15.765625 -15.84375 C 14.984375 -16.101562 14.101562 -16.234375 13.125 -16.234375 C 11.507812 -16.234375 10.164062 -15.753906 9.09375 -14.796875 C 8.019531 -13.847656 7.484375 -12.472656 7.484375 -10.671875 C 7.484375 -9.410156 7.722656 -8.367188 8.203125 -7.546875 C 8.691406 -6.734375 9.335938 -6.117188 10.140625 -5.703125 C 10.953125 -5.296875 11.851562 -5.09375 12.84375 -5.09375 C 14.144531 -5.09375 15.265625 -5.347656 16.203125 -5.859375 L 16.203125 -8.03125 L 12.046875 -8.03125 Z M 12.046875 -12.9375 "/></g></g><g style="fill:#888888;fill-opacity:1;"><g transform="translate(98.128698, 279.943928)"><path style="stroke:none" d="M 8.921875 -11.421875 L 8.921875 -10.28125 L 5.34375 -10.28125 L 5.34375 0 L 4 0 L 4 -10.28125 L 0.421875 -10.28125 L 0.421875 -11.421875 Z M 8.921875 -11.421875 "/></g></g><g style="fill:#888888;fill-opacity:1;"><g transform="translate(107.454545, 279.943928)"><path style="stroke:none" d="M 1.734375 0 L 1.734375 -11.421875 L 5.875 -11.421875 C 6.644531 -11.421875 7.289062 -11.296875 7.8125 -11.046875 C 8.332031 -10.796875 8.722656 -10.4375 8.984375 -9.96875 C 9.242188 -9.507812 9.375 -8.96875 9.375 -8.34375 C 9.375 -7.632812 9.195312 -7.046875 8.84375 -6.578125 C 8.488281 -6.117188 7.9375 -5.773438 7.1875 -5.546875 L 7.1875 -5.390625 C 7.550781 -5.242188 7.847656 -5.015625 8.078125 -4.703125 C 8.316406 -4.390625 8.535156 -3.921875 8.734375 -3.296875 L 9.796875 0 L 8.40625 0 L 7.265625 -3.5 C 7.128906 -3.90625 6.972656 -4.222656 6.796875 -4.453125 C 6.617188 -4.691406 6.394531 -4.863281 6.125 -4.96875 C 5.851562 -5.070312 5.507812 -5.125 5.09375 -5.125 L 3.078125 -5.125 L 3.078125 0 Z M 5.84375 -6.265625 C 6.5625 -6.265625 7.09375 -6.429688 7.4375 -6.765625 C 7.789062 -7.097656 7.96875 -7.601562 7.96875 -8.28125 C 7.96875 -8.957031 7.789062 -9.457031 7.4375 -9.78125 C 7.09375 -10.113281 6.5625 -10.28125 5.84375 -10.28125 L 3.078125 -10.28125 L 3.078125 -6.265625 Z M 5.84375 -6.265625 "/></g></g><g style="fill:#888888;fill-opacity:1;"><g transform="translate(118.030087, 279.943928)"><path style="stroke:none" d="M 10.28125 0 L 8.84375 0 L 7.796875 -3.140625 L 2.921875 -3.140625 L 1.859375 0 L 0.453125 0 L 4.4375 -11.421875 L 6.296875 -11.421875 Z M 5.265625 -10.046875 L 3.296875 -4.265625 L 7.40625 -4.265625 L 5.453125 -10.046875 Z M 5.265625 -10.046875 "/></g></g><g style="fill:#888888;fill-opacity:1;"><g transform="translate(128.76184, 279.943928)"><path style="stroke:none" d="M 6.21875 0 L 4.453125 0 L 0.5 -11.421875 L 1.921875 -11.421875 L 5.28125 -1.6875 L 5.46875 -1.6875 L 8.78125 -11.421875 L 10.1875 -11.421875 Z M 6.21875 0 "/></g></g><g style="fill:#888888;fill-opacity:1;"><g transform="translate(139.431109, 279.943928)"><path style="stroke:none" d="M 3.078125 -5.390625 L 3.078125 -1.109375 L 8.890625 -1.109375 L 8.890625 0 L 1.734375 0 L 1.734375 -11.421875 L 8.765625 -11.421875 L 8.765625 -10.3125 L 3.078125 -10.3125 L 3.078125 -6.5 L 8.09375 -6.5 L 8.09375 -5.390625 Z M 3.078125 -5.390625 "/></g></g><g style="fill:#888888;fill-opacity:1;"><g transform="translate(149.077196, 279.943928)"><path style="stroke:none" d="M 3.078125 -11.421875 L 3.078125 -1.109375 L 8.578125 -1.109375 L 8.578125 0 L 1.734375 0 L 1.734375 -11.421875 Z M 3.078125 -11.421875 "/></g></g><g style="fill:#888888;fill-opacity:1;"><g transform="translate(158.129678, 279.943928)"><path style="stroke:none" d=""/></g></g><g style="fill:#888888;fill-opacity:1;"><g transform="translate(162.050596, 279.943928)"><path style="stroke:none" d="M 6.015625 0.171875 C 5.054688 0.171875 4.207031 -0.046875 3.46875 -0.484375 C 2.738281 -0.929688 2.164062 -1.59375 1.75 -2.46875 C 1.34375 -3.351562 1.140625 -4.4375 1.140625 -5.71875 C 1.140625 -7 1.359375 -8.078125 1.796875 -8.953125 C 2.242188 -9.835938 2.859375 -10.5 3.640625 -10.9375 C 4.421875 -11.375 5.320312 -11.59375 6.34375 -11.59375 C 7.4375 -11.59375 8.332031 -11.394531 9.03125 -11 C 9.738281 -10.601562 10.238281 -10.015625 10.53125 -9.234375 L 9.65625 -8.71875 L 9.453125 -8.71875 C 9.160156 -9.3125 8.757812 -9.738281 8.25 -10 C 7.75 -10.257812 7.113281 -10.390625 6.34375 -10.390625 C 3.832031 -10.390625 2.578125 -8.832031 2.578125 -5.71875 C 2.578125 -4.09375 2.890625 -2.90625 3.515625 -2.15625 C 4.148438 -1.414062 5.035156 -1.046875 6.171875 -1.046875 C 7.210938 -1.046875 7.992188 -1.28125 8.515625 -1.75 C 9.035156 -2.226562 9.296875 -2.976562 9.296875 -4 L 9.296875 -5.015625 L 6.046875 -5.015625 L 6.046875 -6.09375 L 10.59375 -6.09375 L 10.59375 0 L 9.359375 0 L 9.359375 -1.53125 L 9.1875 -1.578125 C 8.882812 -0.984375 8.460938 -0.539062 7.921875 -0.25 C 7.390625 0.03125 6.753906 0.171875 6.015625 0.171875 Z M 6.015625 0.171875 "/></g></g><g style="fill:#888888;fill-opacity:1;"><g transform="translate(173.922696, 279.943928)"><path style="stroke:none" d="M 5.890625 0.171875 C 4.492188 0.171875 3.4375 -0.179688 2.71875 -0.890625 C 2 -1.609375 1.640625 -2.664062 1.640625 -4.0625 L 1.640625 -11.421875 L 2.96875 -11.421875 L 2.96875 -4.078125 C 2.96875 -3.078125 3.207031 -2.328125 3.6875 -1.828125 C 4.175781 -1.328125 4.910156 -1.078125 5.890625 -1.078125 C 7.835938 -1.078125 8.8125 -2.078125 8.8125 -4.078125 L 8.8125 -11.421875 L 10.15625 -11.421875 L 10.15625 -4.0625 C 10.15625 -2.664062 9.796875 -1.609375 9.078125 -0.890625 C 8.359375 -0.179688 7.296875 0.171875 5.890625 0.171875 Z M 5.890625 0.171875 "/></g></g><g style="fill:#888888;fill-opacity:1;"><g transform="translate(185.693264, 279.943928)"><path style="stroke:none" d="M 3.078125 0 L 1.734375 0 L 1.734375 -11.421875 L 3.078125 -11.421875 Z M 3.078125 0 "/></g></g><g style="fill:#888888;fill-opacity:1;"><g transform="translate(190.496784, 279.943928)"><path style="stroke:none" d="M 5.421875 -11.421875 C 6.578125 -11.421875 7.570312 -11.210938 8.40625 -10.796875 C 9.238281 -10.390625 9.878906 -9.757812 10.328125 -8.90625 C 10.773438 -8.0625 11 -7 11 -5.71875 C 11 -4.4375 10.773438 -3.367188 10.328125 -2.515625 C 9.878906 -1.671875 9.238281 -1.039062 8.40625 -0.625 C 7.570312 -0.207031 6.578125 0 5.421875 0 L 1.734375 0 L 1.734375 -11.421875 Z M 5.296875 -1.140625 C 6.242188 -1.140625 7.03125 -1.285156 7.65625 -1.578125 C 8.28125 -1.878906 8.753906 -2.363281 9.078125 -3.03125 C 9.398438 -3.707031 9.5625 -4.601562 9.5625 -5.71875 C 9.5625 -6.832031 9.398438 -7.722656 9.078125 -8.390625 C 8.753906 -9.054688 8.28125 -9.535156 7.65625 -9.828125 C 7.03125 -10.128906 6.242188 -10.28125 5.296875 -10.28125 L 3.078125 -10.28125 L 3.078125 -1.140625 Z M 5.296875 -1.140625 "/></g></g><g style="fill:#888888;fill-opacity:1;"><g transform="translate(202.634444, 279.943928)"><path style="stroke:none" d="M 3.078125 -5.390625 L 3.078125 -1.109375 L 8.890625 -1.109375 L 8.890625 0 L 1.734375 0 L 1.734375 -11.421875 L 8.765625 -11.421875 L 8.765625 -10.3125 L 3.078125 -10.3125 L 3.078125 -6.5 L 8.09375 -6.5 L 8.09375 -5.390625 Z M 3.078125 -5.390625 "/></g></g><g style="fill:#888888;fill-opacity:1;"><g transform="translate(212.280531, 279.943928)"><path style="stroke:none" d=""/></g></g><g style="fill:#888888;fill-opacity:1;"><g transform="translate(216.201448, 279.943928)"><path style="stroke:none" d="M 6.015625 0.171875 C 5.054688 0.171875 4.207031 -0.046875 3.46875 -0.484375 C 2.738281 -0.929688 2.164062 -1.59375 1.75 -2.46875 C 1.34375 -3.351562 1.140625 -4.4375 1.140625 -5.71875 C 1.140625 -7 1.359375 -8.078125 1.796875 -8.953125 C 2.242188 -9.835938 2.859375 -10.5 3.640625 -10.9375 C 4.421875 -11.375 5.320312 -11.59375 6.34375 -11.59375 C 7.4375 -11.59375 8.332031 -11.394531 9.03125 -11 C 9.738281 -10.601562 10.238281 -10.015625 10.53125 -9.234375 L 9.65625 -8.71875 L 9.453125 -8.71875 C 9.160156 -9.3125 8.757812 -9.738281 8.25 -10 C 7.75 -10.257812 7.113281 -10.390625 6.34375 -10.390625 C 3.832031 -10.390625 2.578125 -8.832031 2.578125 -5.71875 C 2.578125 -4.09375 2.890625 -2.90625 3.515625 -2.15625 C 4.148438 -1.414062 5.035156 -1.046875 6.171875 -1.046875 C 7.210938 -1.046875 7.992188 -1.28125 8.515625 -1.75 C 9.035156 -2.226562 9.296875 -2.976562 9.296875 -4 L 9.296875 -5.015625 L 6.046875 -5.015625 L 6.046875 -6.09375 L 10.59375 -6.09375 L 10.59375 0 L 9.359375 0 L 9.359375 -1.53125 L 9.1875 -1.578125 C 8.882812 -0.984375 8.460938 -0.539062 7.921875 -0.25 C 7.390625 0.03125 6.753906 0.171875 6.015625 0.171875 Z M 6.015625 0.171875 "/></g></g><g style="fill:#888888;fill-opacity:1;"><g transform="translate(228.073548, 279.943928)"><path style="stroke:none" d="M 3.078125 -11.421875 L 3.078125 -1.109375 L 8.578125 -1.109375 L 8.578125 0 L 1.734375 0 L 1.734375 -11.421875 Z M 3.078125 -11.421875 "/></g></g><g style="fill:#888888;fill-opacity:1;"><g transform="translate(237.12603, 279.943928)"><path style="stroke:none" d="M 6.265625 0.171875 C 5.273438 0.171875 4.394531 -0.0390625 3.625 -0.46875 C 2.851562 -0.90625 2.242188 -1.5625 1.796875 -2.4375 C 1.359375 -3.3125 1.140625 -4.40625 1.140625 -5.71875 C 1.140625 -7.019531 1.359375 -8.109375 1.796875 -8.984375 C 2.242188 -9.867188 2.851562 -10.523438 3.625 -10.953125 C 4.394531 -11.378906 5.273438 -11.59375 6.265625 -11.59375 C 7.253906 -11.59375 8.132812 -11.378906 8.90625 -10.953125 C 9.675781 -10.523438 10.28125 -9.867188 10.71875 -8.984375 C 11.164062 -8.109375 11.390625 -7.019531 11.390625 -5.71875 C 11.390625 -4.40625 11.164062 -3.3125 10.71875 -2.4375 C 10.28125 -1.5625 9.675781 -0.90625 8.90625 -0.46875 C 8.132812 -0.0390625 7.253906 0.171875 6.265625 0.171875 Z M 6.265625 -1.078125 C 7.453125 -1.078125 8.363281 -1.445312 9 -2.1875 C 9.632812 -2.9375 9.953125 -4.113281 9.953125 -5.71875 C 9.953125 -7.320312 9.632812 -8.492188 9 -9.234375 C 8.363281 -9.972656 7.453125 -10.34375 6.265625 -10.34375 C 3.804688 -10.34375 2.578125 -8.800781 2.578125 -5.71875 C 2.578125 -2.625 3.804688 -1.078125 6.265625 -1.078125 Z M 6.265625 -1.078125 "/></g></g><g style="fill:#888888;fill-opacity:1;"><g transform="translate(249.65422, 279.943928)"><path style="stroke:none" d="M 1.734375 0 L 1.734375 -11.421875 L 6.0625 -11.421875 C 6.757812 -11.421875 7.351562 -11.304688 7.84375 -11.078125 C 8.332031 -10.859375 8.703125 -10.539062 8.953125 -10.125 C 9.203125 -9.71875 9.328125 -9.226562 9.328125 -8.65625 C 9.328125 -8.15625 9.191406 -7.703125 8.921875 -7.296875 C 8.648438 -6.898438 8.265625 -6.59375 7.765625 -6.375 L 7.765625 -6.203125 C 8.523438 -6.015625 9.101562 -5.671875 9.5 -5.171875 C 9.894531 -4.679688 10.09375 -4.0625 10.09375 -3.3125 C 10.09375 -2.25 9.78125 -1.429688 9.15625 -0.859375 C 8.53125 -0.285156 7.609375 0 6.390625 0 Z M 6 -6.625 C 6.625 -6.625 7.109375 -6.789062 7.453125 -7.125 C 7.804688 -7.457031 7.984375 -7.910156 7.984375 -8.484375 C 7.984375 -9.097656 7.816406 -9.554688 7.484375 -9.859375 C 7.148438 -10.160156 6.65625 -10.3125 6 -10.3125 L 3.078125 -10.3125 L 3.078125 -6.625 Z M 6.28125 -1.109375 C 7.90625 -1.109375 8.71875 -1.84375 8.71875 -3.3125 C 8.71875 -4.78125 7.90625 -5.515625 6.28125 -5.515625 L 3.078125 -5.515625 L 3.078125 -1.109375 Z M 6.28125 -1.109375 "/></g></g><g style="fill:#888888;fill-opacity:1;"><g transform="translate(260.643729, 279.943928)"><path style="stroke:none" d="M 10.28125 0 L 8.84375 0 L 7.796875 -3.140625 L 2.921875 -3.140625 L 1.859375 0 L 0.453125 0 L 4.4375 -11.421875 L 6.296875 -11.421875 Z M 5.265625 -10.046875 L 3.296875 -4.265625 L 7.40625 -4.265625 L 5.453125 -10.046875 Z M 5.265625 -10.046875 "/></g></g><g style="fill:#888888;fill-opacity:1;"><g transform="translate(271.375482, 279.943928)"><path style="stroke:none" d="M 3.078125 -11.421875 L 3.078125 -1.109375 L 8.578125 -1.109375 L 8.578125 0 L 1.734375 0 L 1.734375 -11.421875 Z M 3.078125 -11.421875 "/></g></g></g></svg>